<?xml version="1.0" encoding="utf-8"?>
<!-- Generator: Adobe Illustrator 19.2.1, SVG Export Plug-In . SVG Version: 6.00 Build 0)  -->
<svg version="1.1" id="layer" xmlns="http://www.w3.org/2000/svg" xmlns:xlink="http://www.w3.org/1999/xlink" x="0px" y="0px"
	 viewBox="0 0 652 652" style="enable-background:new 0 0 652 652;" xml:space="preserve">
<style type="text/css">
	.st0{fill:#00347F;}
</style>
<g>
	<path class="st0" d="M596.3,390.6c0-3.6,2.9-6.3,6.5-6.3c3.4,0,6.4,2.7,6.4,6.3c0,3.7-3,6.4-6.4,6.4
		C599.2,397,596.3,394.3,596.3,390.6 M602.7,396c2.9,0,5.1-2.3,5.1-5.3c0-3-2.3-5.3-5.1-5.3c-2.9,0-5.2,2.3-5.2,5.3
		C597.5,393.7,599.8,396,602.7,396 M601.4,394.3h-1.1V387h2.8c1.7,0,2.6,0.6,2.6,2.1c0,1.3-0.8,1.9-1.9,2l2.1,3.2h-1.2l-1.9-3.2
		h-1.3V394.3z M602.7,390.2c0.9,0,1.8-0.1,1.8-1.2c0-0.9-0.8-1.1-1.6-1.1h-1.5v2.3H602.7z"/>
	<path class="st0" d="M600.6,401c-2.4-0.3-5.4-0.1-7.3-0.7c-6.1-1.7-6.6-4.1-9.7-8.8c-11.6-17-35-56.8-46-73.6
		c9-12.3,19.7-28.2,28.9-40.8c1.4-2,3.2-4.4,4.6-6.2c2-2.6,4.3-5.1,9.5-5.1c1.5,0,3.3-0.2,4.9-0.5c1.9-0.4,3.7-2.4,3.4-4.9
		c-0.6-4.9-6.6-4.5-11.9-4.5l-26.4,0c-6.6,0-11.4-0.5-13.1,3.2c-1.1,2.4,0.3,5.3,2.7,6.2c1.4,0.4,4.5,0.6,6.3,0.6
		c0.9,0,1.6,1,1.1,1.9c-2.8,4.7-7.4,12-10.3,16.2c-3,4.4-11,16-12.2,17.3c-5.7-9-18.5-30.4-20.1-33.4c-0.6-1.1,0.3-2,1.1-2
		c1.8,0,4.1-0.2,5.4-1.1c2.3-1.6,2.8-4.2,1.2-6.6c-2-3-9.7-2.2-15.1-2.2l-28.9,0c-4.4,0-10-0.4-13.2,0.6c-2.8,0.9-4.1,4.4-2.3,7
		c2.4,3.3,6.9,1.5,12.3,3c2,0.6,5.4,2.1,7.2,4.5c0.8,1,1.9,2.4,6.6,9.9c8.8,13.8,17.7,27.8,26.3,41.5
		c-10.8,14.7-21.1,28.8-31.7,43.2c-2,2.8-4.3,5.8-6.8,8.2c-2.1,2-6.5,3.1-9.5,3.1c-3.1,0-14.3,0-17.5,0c-2.6,0-6.9,0.3-8.7-2
		c-1.1-1.4-1.7-2.9-2-6.1c-0.2-2.2-0.3-4.5-0.3-6.5c-0.2-14-0.3-85.9-0.2-88c0.2-6.3,2.6-8.4,7.3-8.6c2,0,3.9-0.1,5.4-0.7
		c1.6-0.6,2.7-2.1,2.8-3.9c0.3-4.6-4.1-5.4-9.2-5.4c-2.9,0-6,0.1-8.5,0.1h-27.3c-4.4,0-9.9-0.5-13.1,0.5c-3,1-4.1,4.5-2.2,7.2
		c2.3,3.2,9.3,1.2,11.9,3.1c1.9,1.3,2.9,4.3,3.2,8.6c0.3,5.8,0,12,0,17.7v56.8c0,6.4,0,14.4-0.7,20.3c-0.3,2.9-1.5,5.7-3.9,6.4
		c-3.4,1.1-6.7-0.8-9.5-2.2c-3.4-1.7-6.1-3.7-8.5-5.6c-5.2-4.2-9.4-9-13.9-13.7c-4.6-4.8-8.7-9.3-13.2-14.4
		c-2.9-3.3-6.7-7.4-9.7-10.9c-0.7-0.8-3.1-3.2-3-3.8c0.1-0.4,1.7-1.3,2.1-1.6c5-4.2,9.4-8.3,13.1-13.6c4.1-5.7,7.8-13.1,7.2-23.1
		c-0.6-9.2-4.5-15.9-9.7-20.8c-5.3-5-12.6-7.9-21.1-9.5c-8.5-1.6-18.5-1.4-28.8-1.4h-76.2c-4.8,0-11.2-0.6-14.7,0.7
		c-2.3,0.9-3.8,3.7-2.5,6.3c0.7,1.4,2.2,2.3,4,2.6c3.9,0.7,7.9-0.3,10.8,1.3c2.5,1.4,3,5.1,3.4,9c0.3,3.2,1.8,62,1.6,68.5
		c-4.3-3.8-66.4-61.6-74.6-69.4c-6.1-5.8-12.1-11.8-18.4-17.7c-2-1.9-4.4-4.5-8.1-4c-4.8,0.7-4.6,6.6-4.7,12.6
		c-0.2,21.8-1.2,96.1-2,103.7c-0.2,2.4-0.8,4.7-2.3,6.1c-1.7,1.6-7.2,1.6-11.7,1.6c-5.2,0-9.6-0.2-12.3-1.8
		c-2.8-1.6-2.6-7.5-2.9-12.4c-0.4-5.1-0.4-86.5-0.4-86.5c0-8-0.2-14.4,0.2-22.2c0.1-2.8,0.5-5.9,2-7.3c2.1-1.9,5-2.5,8.6-2.5
		l522.7-3.5v-5.8l-554.5-3.7l-6,0c-4.9,0-8.2,0-12.1,0c-2.8,0-4.2,0.4-4.9,0.6c-4.9,1.4-4.3,8,0.4,9c1.8,0.4,3.6,0.3,5.6,0.4
		c1.9,0.1,3.6,0.4,4.9,1.2c3,1.8,3.3,8.2,3.3,13.1c0,0,0.2,104.3-0.7,111.3c-0.4,3.7-0.7,6.5-2.8,8.3c-2.1,1.8-6.7,1-10.4,1.8
		c-4.3,0.9-5.2,6.5-1.2,8.6c2.6,1.3,9.1,0.9,14,0.9c29,0,56.6,0,85.7,0c6.1,0,13.5,0.9,15.3-3.2c1.3-3.1-1-5.8-3.6-6.4
		c-1.6-0.4-3.4-0.3-5.1-0.4c-1.8-0.1-3.5-0.3-4.6-0.5c-3.1-0.7-3.8-3.6-4.4-7.2c-0.6-3.3-1.9-62-2.5-68.7c1.2,0.6,2.1,1.6,3,2.5
		c6.9,6.9,13.7,13.6,20.8,20.1c8.1,7.4,52.8,48.4,67.3,61.2c2.1,1.9,4.7,4,7.3,4.4c0.9,0.1,2.7,0,3.6-0.4c3.7-1.7,3.4-6.7,3.4-12.4
		c0-15.8,0.9-31.2,0.9-46.7c0-16,0.9-30.9,0.9-46.8c0-5-0.3-12.3,2.2-14.5c2-1.7,4.5-2.1,9.8-2.1c5,0,7.3,0.4,9.6,2.1
		c2.6,1.8,2.5,7.7,2.5,13.4c0,7.1,0.1,76.4-0.2,83c-0.2,3.4-0.6,9.6-2.7,11.5c-0.9,0.8-2.6,1.1-4,1.3c-3,0.3-5.5,0-7.5,1.7
		c-1.5,1.4-1.8,4.5-0.2,6.3c1,1.1,2.6,1.7,4.6,1.9c2.3,0.2,8.1,0,11.8,0c7.6,0,19.7,0,28.8,0c4.6,0,10.8,0.5,13.9-0.5
		c2-0.7,3.3-2,3.4-4.1c0.1-2.2-1.4-4.4-3.9-4.9c-2.3-0.4-4.3-0.4-6.6-0.6c-2.3-0.1-4.7-0.2-6.2-1.9c-1.6-1.7-2-5.5-2.2-8.8
		c-0.6-9.6-0.5-21.8-0.2-30.6c3.6,0.2,7.1,0.3,10.6,0.3c1.2,0,2.8-0.3,3.7,0c1,0.3,2.7,2.9,3.7,4.1c8,10.1,15.7,20.7,24.4,30
		c5,5.3,10.3,10.8,17.1,13.9c7.1,3.2,16.8,3.1,27.7,3.1c30.3,0,76.1,0,103,0c3.8,0,9.9,0.5,12.6-1c1.3-0.7,2.4-2.3,2.4-3.9
		c0-2.1-1.6-4.1-4-4.6c-2-0.4-3.5-0.4-4.3-0.4c-1,0-1.6-1.2-1-2c7.4-11.5,16.1-24.3,23.5-35.3c7.9,12.5,25.4,42.4,34.5,58.1
		l-530.4,3.7v5.7c534.3,3.7,576,3.6,577.5,3.6c2.5,0,6.5-1.2,6.5-4.9C605.9,402.4,603.4,401.4,600.6,401 M319.4,320.1
		c-0.9,0.4-2.3,0.8-3.4,0.9c-6.2,0.6-12.5,0.1-17.9-1.1c-0.2-16.1-0.2-32.9,0-48.9c6.1-0.9,12.2-0.7,17.6,1.4
		c8.8,3.4,14.6,12.1,15,22.8C331.1,304.6,327.9,316.2,319.4,320.1"/>
</g>
</svg>
